<?xml version="1.0" standalone="no"?><!DOCTYPE svg PUBLIC "-//W3C//DTD SVG 1.1//EN" "http://www.w3.org/Graphics/SVG/1.1/DTD/svg11.dtd"><svg t="1589978743563" class="icon" viewBox="0 0 1024 1024" version="1.1" xmlns="http://www.w3.org/2000/svg" p-id="1278" xmlns:xlink="http://www.w3.org/1999/xlink" width="200" height="200"><defs><style type="text/css"></style></defs><path d="M512 170.666667C298.666667 170.666667 116.48 303.36 42.666667 490.666667 116.48 677.973333 298.666667 810.666667 512 810.666667s395.52-132.693333 469.333333-320C907.52 303.36 725.333333 170.666667 512 170.666667z m0 533.333333c-117.76 0-213.333333-95.573333-213.333333-213.333333s95.573333-213.333333 213.333333-213.333334 213.333333 95.573333 213.333333 213.333334-95.573333 213.333333-213.333333 213.333333z m0-341.333333c-70.826667 0-128 57.173333-128 128s57.173333 128 128 128 128-57.173333 128-128-57.173333-128-128-128z" fill="#ffffff" p-id="1279"></path></svg>